<svg id="barcode" width="354px" height="142px" x="0px" y="0px" viewBox="0 0 354 142" xmlns="http://www.w3.org/2000/svg" version="1.1" style="transform: translate(0px, 0px);"><rect x="0" y="0" width="354" height="142" style="fill:#ffffff;"/><g transform="translate(10, 10)" style="fill:#000000;"><rect x="0" y="0" width="4" height="100"/><rect x="6" y="0" width="2" height="100"/><rect x="12" y="0" width="6" height="100"/><rect x="22" y="0" width="4" height="100"/><rect x="30" y="0" width="2" height="100"/><rect x="38" y="0" width="2" height="100"/><rect x="44" y="0" width="2" height="100"/><rect x="52" y="0" width="2" height="100"/><rect x="60" y="0" width="4" height="100"/><rect x="66" y="0" width="6" height="100"/><rect x="74" y="0" width="2" height="100"/><rect x="78" y="0" width="8" height="100"/><rect x="88" y="0" width="2" height="100"/><rect x="94" y="0" width="4" height="100"/><rect x="100" y="0" width="6" height="100"/><rect x="110" y="0" width="2" height="100"/><rect x="114" y="0" width="6" height="100"/><rect x="122" y="0" width="8" height="100"/><rect x="132" y="0" width="4" height="100"/><rect x="140" y="0" width="2" height="100"/><rect x="146" y="0" width="6" height="100"/><rect x="154" y="0" width="6" height="100"/><rect x="164" y="0" width="2" height="100"/><rect x="168" y="0" width="4" height="100"/><rect x="176" y="0" width="6" height="100"/><rect x="184" y="0" width="2" height="100"/><rect x="188" y="0" width="8" height="100"/><rect x="198" y="0" width="2" height="100"/><rect x="204" y="0" width="4" height="100"/><rect x="210" y="0" width="6" height="100"/><rect x="220" y="0" width="6" height="100"/><rect x="228" y="0" width="2" height="100"/><rect x="232" y="0" width="4" height="100"/><rect x="242" y="0" width="4" height="100"/><rect x="252" y="0" width="2" height="100"/><rect x="260" y="0" width="2" height="100"/><rect x="264" y="0" width="6" height="100"/><rect x="272" y="0" width="6" height="100"/><rect x="280" y="0" width="4" height="100"/><rect x="286" y="0" width="4" height="100"/><rect x="296" y="0" width="2" height="100"/><rect x="302" y="0" width="2" height="100"/><rect x="308" y="0" width="4" height="100"/><rect x="318" y="0" width="6" height="100"/><rect x="326" y="0" width="2" height="100"/><rect x="330" y="0" width="4" height="100"/><text style="font: 20px monospace" text-anchor="middle" x="167" y="122">1035-2025-VIP</text></g></svg>